<svg width="96" height="96" viewBox="0 0 96 96" fill="none" xmlns="http://www.w3.org/2000/svg">
<path d="M81 27H21C20.2044 27 19.4413 26.6839 18.8787 26.1213C18.3161 25.5587 18 24.7956 18 24C18 23.2044 18.3161 22.4413 18.8787 21.8787C19.4413 21.3161 20.2044 21 21 21H72C72.7957 21 73.5587 20.6839 74.1213 20.1213C74.6839 19.5587 75 18.7956 75 18C75 17.2044 74.6839 16.4413 74.1213 15.8787C73.5587 15.3161 72.7957 15 72 15H21C18.6131 15 16.3239 15.9482 14.636 17.636C12.9482 19.3239 12 21.6131 12 24V72C12 74.3869 12.9482 76.6761 14.636 78.364C16.3239 80.0518 18.6131 81 21 81H81C82.5913 81 84.1174 80.3679 85.2426 79.2426C86.3679 78.1174 87 76.5913 87 75V33C87 31.4087 86.3679 29.8826 85.2426 28.7574C84.1174 27.6321 82.5913 27 81 27ZM81 75H21C20.2044 75 19.4413 74.6839 18.8787 74.1213C18.3161 73.5587 18 72.7957 18 72V32.4862C18.9633 32.8277 19.978 33.0015 21 33H81V75ZM63 52.5C63 51.61 63.2639 50.74 63.7584 49.9999C64.2529 49.2599 64.9557 48.6831 65.7779 48.3425C66.6002 48.0019 67.505 47.9128 68.3779 48.0865C69.2508 48.2601 70.0526 48.6887 70.682 49.318C71.3113 49.9474 71.7399 50.7492 71.9135 51.6221C72.0872 52.495 71.9981 53.3998 71.6575 54.2221C71.3169 55.0443 70.7401 55.7471 70.0001 56.2416C69.26 56.7361 68.39 57 67.5 57C66.3065 57 65.1619 56.5259 64.318 55.682C63.4741 54.8381 63 53.6935 63 52.5Z" fill="#099ADA"/>
</svg>
