<svg width="96" height="96" viewBox="0 0 96 96" fill="none" xmlns="http://www.w3.org/2000/svg">
<g clip-path="url(#clip0_379_217)">
<path d="M71.916 52.096C67.44 47.632 60.664 46.824 55.356 49.668L36.028 30.34V17.996C36.028 13.944 33.848 10.172 30.34 8.14801L18.416 1.27201C14.692 -0.879987 9.968 -0.251987 6.92 2.78801L2.82 6.89601C-0.224002 9.93201 -0.844002 14.66 1.304 18.384L8.18 30.308C10.204 33.82 13.98 36 18.028 36H30.372L49.676 55.304C48.564 57.336 47.972 59.62 47.972 62C47.972 65.744 49.432 69.256 52.084 71.904L72.14 91.904C74.772 94.528 78.356 96 82.06 96C86 96 90.412 93.916 92.932 90.844C97.436 85.356 96.836 76.944 91.568 71.696L71.916 52.096ZM15.108 26.316L8.232 14.388C7.888 13.796 7.988 13.04 8.476 12.552L12.576 8.44801C13.064 7.96401 13.82 7.86001 14.416 8.20401L26.336 15.084C27.376 15.684 28.024 16.804 28.024 18V28H18.024C16.824 28 15.708 27.356 15.108 26.316ZM86.748 85.768C85.644 87.116 84.084 87.904 82.36 87.992C80.676 88.072 78.996 87.436 77.792 86.24L57.736 66.24C56.6 65.108 55.976 63.604 55.976 62C55.976 60.396 56.604 58.896 57.736 57.76C58.912 56.588 60.46 56 62.004 56C63.548 56 65.092 56.588 66.268 57.76L85.924 77.356C88.308 79.736 88.668 83.428 86.748 85.768ZM41.748 68.396C43.308 69.964 43.304 72.492 41.74 74.052L23.832 91.9C21.2 94.524 17.62 95.996 13.912 95.996C10.388 95.996 5.56 93.912 3.04 90.836C-1.46 85.352 -0.864002 76.94 4.408 71.692L27.08 49.072C28.64 47.512 31.176 47.512 32.736 49.08C34.296 50.644 34.292 53.176 32.728 54.736L10.052 77.356C7.668 79.736 7.3 83.428 9.22 85.764C10.328 87.116 11.888 87.904 13.612 87.992C15.316 88.068 16.976 87.436 18.18 86.24L36.092 68.392C37.656 66.832 40.184 66.832 41.752 68.4L41.748 68.396ZM39.572 18.536C43.252 9.16401 51.668 2.24001 61.536 0.468013C64.988 -0.147987 68.456 -0.159987 71.852 0.444013C74.516 0.916013 76.664 2.79601 77.46 5.34001C78.376 8.25601 77.46 11.464 75.012 13.92L65.672 22.888C63.732 24.828 63.416 27.932 65.012 29.884C65.932 31.008 67.224 31.664 68.656 31.74C70.052 31.808 71.432 31.292 72.444 30.28L82.9 20.196C84.844 18.252 87.752 17.528 90.472 18.396C93.128 19.232 95.076 21.444 95.56 24.16C96.16 27.552 96.152 31.028 95.536 34.484C94.412 40.772 91.136 46.628 86.312 50.976C85.548 51.664 84.588 52.004 83.636 52.004C82.544 52.004 81.452 51.56 80.664 50.684C79.184 49.044 79.316 46.512 80.956 45.032C84.464 41.872 86.844 37.624 87.66 33.08C88.052 30.888 88.108 28.7 87.832 26.552L78.052 35.988C75.512 38.536 71.932 39.924 68.26 39.732C64.596 39.548 61.156 37.808 58.82 34.952C54.652 29.856 55.204 22.048 60.076 17.18L69.412 8.21201L69.448 8.17601C67.308 7.90401 65.124 7.96001 62.948 8.35201C55.796 9.63201 49.696 14.66 47.02 21.468C46.216 23.524 43.892 24.536 41.836 23.728C39.78 22.92 38.764 20.6 39.576 18.544L39.572 18.536Z" fill="#08A4E1"/>
</g>
<defs>
<clipPath id="clip0_379_217">
<rect width="96" height="96" fill="white"/>
</clipPath>
</defs>
</svg>
