<svg width="96" height="96" viewBox="0 0 96 96" fill="none" xmlns="http://www.w3.org/2000/svg">
<path d="M78 60H60V54H78V60ZM90 84H72V78H90V84ZM84 72H66V66H84V72Z" fill="#259CD7"/>
<path d="M51.0089 60C50.9878 57.4686 50.3126 54.9857 49.049 52.7922C47.7854 50.5987 45.9761 48.7691 43.7969 47.481L65.9999 9L60.8099 6L38.0789 45.378C35.2892 44.7548 32.3878 44.841 29.64 45.6287C26.8922 46.4164 24.3858 47.8805 22.3499 49.887C11.1179 60.72 11.9879 86.046 12.0299 87.12C12.0609 87.8947 12.3907 88.6273 12.9499 89.1642C13.5092 89.7011 14.2546 90.0006 15.0299 90H60.0029C60.6326 90 61.2463 89.8019 61.7571 89.4337C62.2679 89.0656 62.6499 88.546 62.849 87.9487C63.0481 87.3513 63.0542 86.7065 62.8665 86.1055C62.6787 85.5045 62.3066 84.9778 61.8029 84.6C51.1829 76.632 51.0089 60.162 51.0089 60ZM35.7899 50.991C38.191 51.0174 40.4895 51.9685 42.2072 53.6465C43.9249 55.3245 44.9295 57.6002 45.0119 60C45.0119 60.114 45.0179 60.624 45.0629 61.407L27.3629 53.535C28.5288 52.5736 29.8743 51.8536 31.321 51.4168C32.7677 50.9801 34.2868 50.8353 35.7899 50.991ZM46.3499 84C43.952 81.5583 42.4235 78.3959 41.9999 75H35.9999C36.2148 78.1928 37.2121 81.2837 38.9039 84H32.2349C31.0012 80.1067 30.2506 76.0765 29.9999 72H23.9999C24.1934 76.0642 24.863 80.0918 25.9949 84H17.9999C18.0929 78.492 18.8699 66.324 23.4089 58.341L46.0079 68.391C47.0937 74.0289 49.4086 79.3583 52.7879 84H46.3499Z" fill="#259CD7"/>
</svg>
