<svg width="96" height="96" viewBox="0 0 96 96" fill="none" xmlns="http://www.w3.org/2000/svg">
<path d="M90.4688 10.3125C91.2812 11.7188 92.0156 13.0625 92.6719 14.3438C93.3281 15.625 93.9219 16.9219 94.4531 18.2344C94.9844 19.5469 95.3594 20.9062 95.5781 22.3125C95.7969 23.7188 95.9375 25.2812 96 27C96 29.4688 95.6875 31.8438 95.0625 34.125C94.4375 36.4062 93.5312 38.5625 92.3438 40.5938C91.1562 42.625 89.7344 44.4531 88.0781 46.0781C86.4219 47.7031 84.5938 49.1094 82.5938 50.2969C80.5938 51.4844 78.4531 52.3906 76.1719 53.0156C73.8906 53.6406 71.5 53.9688 69 54C68.2812 54 67.5625 53.9688 66.8438 53.9062C66.125 53.8438 65.3906 53.75 64.6406 53.625L26.8594 91.4062C25.3594 92.9062 23.6562 94.0469 21.75 94.8281C19.8438 95.6094 17.8281 96 15.7031 96C13.5469 96 11.5156 95.5938 9.60938 94.7812C7.70312 93.9688 6.04688 92.8438 4.64062 91.4062C3.23438 89.9688 2.10938 88.2969 1.26562 86.3906C0.421875 84.4844 0 82.4531 0 80.2969C0 78.2031 0.390625 76.2031 1.17188 74.2969C1.95312 72.3906 3.09375 70.6719 4.59375 69.1406L42.375 31.3594C42.25 30.6406 42.1562 29.9219 42.0938 29.2031C42.0312 28.4844 42 27.75 42 27C42 24.5312 42.3125 22.1562 42.9375 19.875C43.5625 17.5938 44.4688 15.4375 45.6562 13.4062C46.8438 11.375 48.2656 9.54688 49.9219 7.92188C51.5781 6.29688 53.4062 4.89062 55.4062 3.70312C57.4062 2.51562 59.5469 1.60938 61.8281 0.984375C64.1094 0.359375 66.5 0.03125 69 0C70.6875 0 72.2344 0.125 73.6406 0.375C75.0469 0.625 76.4219 1.01562 77.7656 1.54688C79.1094 2.07812 80.4062 2.65625 81.6562 3.28125C82.9062 3.90625 84.25 4.65625 85.6875 5.53125L67.2188 24L72 28.7812L90.4688 10.3125ZM69 48C71.9062 48 74.625 47.4531 77.1562 46.3594C79.6875 45.2656 81.9062 43.7656 83.8125 41.8594C85.7188 39.9531 87.2188 37.7344 88.3125 35.2031C89.4062 32.6719 89.9688 29.9375 90 27C90 24.7188 89.625 22.5156 88.875 20.3906L72 37.2188L58.7812 24L75.6094 7.125C73.4844 6.375 71.2812 6 69 6C66.0938 6 63.375 6.54688 60.8438 7.64062C58.3125 8.73438 56.0938 10.2344 54.1875 12.1406C52.2812 14.0469 50.7812 16.2656 49.6875 18.7969C48.5938 21.3281 48.0312 24.0625 48 27C48 28.0938 48.0938 29.1562 48.2812 30.1875C48.4688 31.2188 48.6875 32.25 48.9375 33.2812L8.85938 73.4062C7.95312 74.3125 7.25 75.3594 6.75 76.5469C6.25 77.7344 6 78.9844 6 80.2969C6 81.6094 6.25 82.8594 6.75 84.0469C7.25 85.2344 7.95312 86.2656 8.85938 87.1406C9.76562 88.0156 10.7969 88.7031 11.9531 89.2031C13.1094 89.7031 14.3594 89.9688 15.7031 90C17.0156 90 18.2656 89.75 19.4531 89.25C20.6406 88.75 21.6875 88.0469 22.5938 87.1406L62.7188 47.0625C63.75 47.3125 64.7812 47.5312 65.8125 47.7188C66.8438 47.9062 67.9062 48 69 48Z" fill="#099ADA"/>
</svg>
