<svg width="96" height="96" viewBox="0 0 96 96" fill="none" xmlns="http://www.w3.org/2000/svg">
<path fill-rule="evenodd" clip-rule="evenodd" d="M4.94775 4.37634C6.51502 2.80907 8.64069 1.92859 10.8571 1.92859H86.2857C88.5022 1.92859 90.6278 2.80907 92.1951 4.37634C93.7624 5.94361 94.6429 8.06928 94.6429 10.2857V44.5714C94.6429 46.7879 93.7624 48.9136 92.1951 50.4808C90.6278 52.0481 88.5022 52.9286 86.2857 52.9286H10.8571C8.64069 52.9286 6.51502 52.0481 4.94775 50.4808C3.38048 48.9136 2.5 46.7879 2.5 44.5714V10.2857C2.5 8.06928 3.38048 5.94361 4.94775 4.37634ZM10.8571 4.92859C9.43634 4.92859 8.07373 5.493 7.06907 6.49766C6.06441 7.50232 5.5 8.86493 5.5 10.2857V44.5714C5.5 45.9922 6.06441 47.3549 7.06907 48.3595C8.07373 49.3642 9.43634 49.9286 10.8571 49.9286H86.2857C87.7065 49.9286 89.0691 49.3642 90.0738 48.3595C91.0784 47.3549 91.6429 45.9922 91.6429 44.5714V10.2857C91.6429 8.86493 91.0784 7.50232 90.0738 6.49766C89.0691 5.493 87.7065 4.92859 86.2857 4.92859H10.8571Z" fill="#259CD7"/>
<path fill-rule="evenodd" clip-rule="evenodd" d="M21.7371 31.4514C23.3981 29.7903 25.6509 28.8572 28 28.8572H69.1429C71.4919 28.8572 73.7448 29.7903 75.4058 31.4514C77.0668 33.1124 78 35.3653 78 37.7143V51.4286C78 52.5332 77.1046 53.4286 76 53.4286C74.8954 53.4286 74 52.5332 74 51.4286V37.7143C74 36.4261 73.4883 35.1907 72.5774 34.2798C71.6665 33.3689 70.4311 32.8572 69.1429 32.8572H28C26.7118 32.8572 25.4764 33.3689 24.5655 34.2798C23.6546 35.1907 23.1429 36.4261 23.1429 37.7143V51.4286C23.1429 52.5332 22.2474 53.4286 21.1429 53.4286C20.0383 53.4286 19.1429 52.5332 19.1429 51.4286V37.7143C19.1429 35.3653 20.076 33.1124 21.7371 31.4514ZM28 66.5715C29.1046 66.5715 30 67.4669 30 68.5715V76.1143C30 79.1908 28.7779 82.1413 26.6024 84.3168C24.427 86.4922 21.4765 87.7143 18.4 87.7143H17.7143C16.6097 87.7143 15.7143 86.8189 15.7143 85.7143C15.7143 84.6098 16.6097 83.7143 17.7143 83.7143H18.4C20.4157 83.7143 22.3487 82.9136 23.774 81.4883C25.1993 80.0631 26 78.13 26 76.1143V68.5715C26 67.4669 26.8954 66.5715 28 66.5715ZM48.5714 66.5715C49.676 66.5715 50.5714 67.4669 50.5714 68.5715V92.5715C50.5714 93.676 49.676 94.5715 48.5714 94.5715C47.4669 94.5715 46.5714 93.676 46.5714 92.5715V68.5715C46.5714 67.4669 47.4669 66.5715 48.5714 66.5715ZM69.1429 66.5715C70.2474 66.5715 71.1429 67.4669 71.1429 68.5715V76.1143C71.1429 78.13 71.9436 80.0631 73.3689 81.4883C74.7941 82.9136 76.7272 83.7143 78.7429 83.7143H79.4286C80.5331 83.7143 81.4286 84.6098 81.4286 85.7143C81.4286 86.8189 80.5331 87.7143 79.4286 87.7143H78.7429C75.6664 87.7143 72.7158 86.4922 70.5404 84.3168C68.365 82.1413 67.1429 79.1908 67.1429 76.1143V68.5715C67.1429 67.4669 68.0383 66.5715 69.1429 66.5715Z" fill="#259CD7"/>
</svg>
