<svg width="713" height="114" viewBox="0 0 713 114" fill="none" xmlns="http://www.w3.org/2000/svg">
<g clip-path="url(#clip0_552_274)">
<path d="M0 110.85L18.35 10.3599H31.67L58.46 74.8899L86.43 10.3599H99.75L116.33 110.85H96.79L87.91 50.0199L60.83 112.18H55.5L29.6 50.0199L19.54 110.85H0Z" fill="white"/>
<path d="M131.13 46.77H149.19V83.03C149.19 88.16 150.47 91.91 153.04 94.28C155.51 96.45 158.56 97.54 162.22 97.54C165.88 97.54 168.93 96.46 171.4 94.28C173.96 91.91 175.25 88.16 175.25 83.03V46.77H193.31V85.99C193.31 94.57 190.69 101.14 185.47 105.67C179.94 110.5 172.2 112.92 162.23 112.92C152.26 112.92 144.52 110.5 138.99 105.67C133.76 101.13 131.15 94.57 131.15 85.99V46.77H131.13Z" fill="white"/>
<path d="M210.45 0H228.51V110.85H210.45V0Z" fill="white"/>
<path d="M276.17 62.1601H263.74V110.85H245.68V62.1601H238.58V46.7701H245.68V24.8701H263.74V46.7701H276.17V62.1601Z" fill="white"/>
<path d="M287.04 27.3101C284.92 25.1901 283.86 22.6501 283.86 19.6901C283.86 16.7301 284.92 14.1901 287.04 12.0701C289.16 9.95014 291.7 8.89014 294.66 8.89014C297.62 8.89014 300.16 9.95014 302.28 12.0701C304.4 14.1901 305.46 16.7301 305.46 19.6901C305.46 22.6501 304.4 25.1901 302.28 27.3101C300.16 29.4301 297.62 30.4901 294.66 30.4901C291.7 30.4901 289.16 29.4301 287.04 27.3101ZM285.63 46.7701H303.69V110.85H285.63V46.7701Z" fill="white"/>
<path d="M395.15 84.7999V107.3C387.85 111.15 379.71 113.07 370.73 113.07C356.32 113.07 344.29 108.48 334.62 99.3099C324.06 89.1499 318.78 76.5699 318.78 61.5699C318.78 45.5899 324.06 32.7099 334.62 22.9399C343.89 14.2599 355.98 9.91992 370.88 9.91992C379.56 9.91992 387.65 11.9399 395.15 15.9899V38.4899C388.73 31.0899 380.79 27.3899 371.32 27.3899C361.85 27.3899 353.78 30.7699 347.71 37.5299C341.64 44.2899 338.61 52.3999 338.61 61.8799C338.61 72.2399 341.96 80.4499 348.67 86.5199C355.38 92.5899 363.17 95.6199 372.05 95.6199C380.93 95.6199 389.02 92.0199 395.14 84.8199L395.15 84.7999Z" fill="white"/>
<path d="M410.25 0H428.31V110.85H410.25V0Z" fill="white"/>
<path d="M446.88 27.3101C444.76 25.1901 443.7 22.6501 443.7 19.6901C443.7 16.7301 444.76 14.1901 446.88 12.0701C449 9.95014 451.54 8.89014 454.5 8.89014C457.46 8.89014 460 9.95014 462.12 12.0701C464.24 14.1901 465.3 16.7301 465.3 19.6901C465.3 22.6501 464.24 25.1901 462.12 27.3101C460 29.4301 457.46 30.4901 454.5 30.4901C451.54 30.4901 449 29.4301 446.88 27.3101ZM445.47 46.7701H463.53V110.85H445.47V46.7701Z" fill="white"/>
<path d="M480.69 110.85V46.7702H498.75V54.0202C503.68 47.8002 510.05 44.7002 517.84 44.7002C527.41 44.7002 534.17 48.6002 538.12 56.3902C542.95 48.6002 549.81 44.7002 558.69 44.7002C566.19 44.7002 571.96 47.3202 576.01 52.5402C577.88 55.0102 579.09 57.5702 579.64 60.2402C580.18 62.9002 580.45 66.3602 580.45 70.6002V110.86H562.39V75.9302C562.39 69.9102 561.4 65.7202 559.43 63.3502C557.65 61.1802 555.19 60.0902 552.03 60.0902C547.49 60.0902 544.19 61.9702 542.11 65.7102C540.43 68.4702 539.59 72.6202 539.59 78.1402V110.85H521.53V75.9202C521.53 69.9002 520.54 65.7102 518.57 63.3402C516.79 61.1702 514.33 60.0802 511.17 60.0802C506.63 60.0802 503.33 61.9602 501.25 65.7002C499.57 68.4602 498.73 72.6102 498.73 78.1302V110.84H480.67L480.69 110.85Z" fill="white"/>
<path d="M646.75 55.0599V46.7699H664.81V110.85H646.75V102.56C641.92 109.47 635.35 112.92 627.07 112.92C617.4 112.92 609.53 109.62 603.46 103C597.39 96.3899 594.36 88.2999 594.36 78.7299C594.36 69.1599 597.32 60.9699 603.24 54.4599C609.16 47.9499 616.81 44.6899 626.18 44.6899C635.55 44.6899 642.31 48.1499 646.75 55.0499V55.0599ZM643.49 65.8599C640.13 62.4099 635.89 60.6799 630.76 60.6799C625.63 60.6799 621.38 62.4099 618.03 65.8599C614.67 69.3199 613 73.6099 613 78.7399C613 83.8699 614.68 88.1899 618.03 91.6899C621.38 95.1899 625.63 96.9399 630.76 96.9399C635.89 96.9399 640.13 95.1899 643.49 91.6899C646.84 88.1899 648.52 83.8699 648.52 78.7399C648.52 73.6099 646.84 69.3199 643.49 65.8599Z" fill="white"/>
<path d="M712.46 62.1601H700.03V110.85H681.97V62.1601H674.87V46.7701H681.97V24.8701H700.03V46.7701H712.46V62.1601Z" fill="white"/>
</g>
<defs>
<clipPath id="clip0_552_274">
<rect width="712.46" height="113.07" fill="white"/>
</clipPath>
</defs>
</svg>
