<svg width="96" height="96" viewBox="0 0 96 96" fill="none" xmlns="http://www.w3.org/2000/svg">
<path d="M16 80V26C16 23.232 16.9733 20.872 18.92 18.92C20.8747 16.9733 23.2347 16 26 16H40C42.768 16 45.128 16.9733 47.08 18.92C49.0267 20.872 50 23.232 50 26V34H42.92C41.1333 34 39.6093 34.6293 38.348 35.888C37.0893 37.1467 36.46 38.6707 36.46 40.46V59.54C36.46 61.3267 37.0893 62.8507 38.348 64.112C39.6093 65.3707 41.1347 66 42.924 66H50V80H16ZM66.9 66.36C65.628 66.36 64.348 66.204 63.06 65.892C61.7693 65.58 60.5027 65.1853 59.26 64.708L60.532 60.876C61.6893 61.2867 62.812 61.6373 63.9 61.928C64.988 62.2187 65.988 62.3627 66.9 62.36C67.9053 62.36 68.8853 62.2187 69.84 61.936C70.792 61.6507 71.8053 61.1573 72.88 60.456C74.2587 59.4907 75.712 58.8173 77.24 58.436C78.768 58.0547 80.1213 57.8627 81.3 57.86C82.5053 57.86 83.756 58.004 85.052 58.292C86.3507 58.58 87.6133 58.9533 88.84 59.412L87.568 63.324C86.2453 62.876 85.0573 62.52 84.004 62.256C82.9507 61.992 82.016 61.86 81.2 61.86C80.112 61.86 78.9827 62.0493 77.812 62.428C76.6387 62.804 75.484 63.4107 74.348 64.248C73.3667 64.944 72.2293 65.4707 70.936 65.828C69.64 66.1827 68.2947 66.36 66.9 66.36ZM50 62H42.92C42.2053 62 41.616 61.7693 41.152 61.308C40.6907 60.8467 40.46 60.2573 40.46 59.54V40.46C40.46 39.7427 40.6907 39.1533 41.152 38.692C41.6133 38.2307 42.204 38 42.924 38H50V62ZM66.8 52.3C65.528 52.3 64.264 52.144 63.008 51.832C61.752 51.5173 60.5027 51.1227 59.26 50.648L60.532 46.892C61.66 47.3373 62.7587 47.684 63.828 47.932C64.8947 48.1773 65.9187 48.3 66.9 48.3C67.9053 48.3 68.8973 48.1533 69.876 47.86C70.8573 47.5667 71.8573 47.0773 72.876 46.392C74.2707 45.4133 75.692 44.736 77.14 44.36C78.5853 43.9867 79.9387 43.8 81.2 43.8C82.456 43.8 83.736 43.94 85.04 44.22C86.3467 44.5 87.6133 44.8773 88.84 45.352L87.492 49.26C86.0627 48.78 84.916 48.416 84.052 48.168C83.1853 47.9227 82.2347 47.8 81.2 47.8C80.1947 47.8 79.132 47.9627 78.012 48.288C76.892 48.6133 75.696 49.22 74.424 50.108C73.2293 50.9373 71.992 51.5107 70.712 51.828C69.432 52.1427 68.128 52.3 66.8 52.3ZM66.9 38.24C65.628 38.24 64.344 38.0827 63.048 37.768C61.7493 37.456 60.4867 37.0613 59.26 36.584L60.532 32.752C61.8547 33.232 63.0267 33.5987 64.048 33.852C65.0667 34.1107 66.0173 34.24 66.9 34.24C67.9053 34.24 68.8853 34.0973 69.84 33.812C70.792 33.5267 71.8053 33.0333 72.88 32.332C74.3387 31.3507 75.7627 30.6733 77.152 30.3C78.5387 29.9267 79.888 29.74 81.2 29.74C82.456 29.74 83.712 29.8787 84.968 30.156C86.224 30.436 87.5147 30.8147 88.84 31.292L87.492 35.2C86.1693 34.7547 85.0093 34.4 84.012 34.136C83.02 33.8693 82.0827 33.736 81.2 33.736C80.128 33.736 79.052 33.896 77.972 34.216C76.892 34.536 75.684 35.172 74.348 36.124C73.3507 36.836 72.192 37.3667 70.872 37.716C69.552 38.0653 68.228 38.2387 66.9 38.236" fill="#259CD7"/>
</svg>
