<svg width="96" height="96" viewBox="0 0 96 96" fill="none" xmlns="http://www.w3.org/2000/svg">
<path d="M96 64H92V50.208C92 32.364 80.688 16.5 64 10.124V4H32V10.124C15.312 16.5 4 32.364 4 50.208V64H0V72H5.908C9.888 77.364 23.02 92 48 92C72.98 92 86.112 77.364 90.092 72H96V64ZM84 50.208V64H64V18.828C76.036 24.656 84 36.744 84 50.208ZM56 12V64H40V12H56ZM12 50.208C12 36.744 19.96 24.66 32 18.828V64H12V50.208ZM48 84C32.244 84 22.088 77.252 16.568 72H79.368C73.812 77.248 63.644 84 48 84Z" fill="#259CD7"/>
</svg>
