<svg width="96" height="88" viewBox="0 0 96 88" fill="none" xmlns="http://www.w3.org/2000/svg">
<g clip-path="url(#clip0_379_306)">
<path d="M74.324 7.84657L49.264 0.186906C48.4435 -0.0636042 47.5565 -0.0636042 46.736 0.186906L21.676 7.84657C17.6916 9.0598 14.2257 11.3932 11.7706 14.5152C9.31549 17.6372 7.99614 21.389 8 25.2376V43.9999C8 71.7309 44.8 87.0466 46.376 87.6846C46.8873 87.8928 47.4405 88.0004 48 88.0004C48.5595 88.0004 49.1127 87.8928 49.624 87.6846C51.2 87.0466 88 71.7309 88 43.9999V25.2376C88.0039 21.389 86.6845 17.6372 84.2294 14.5152C81.7743 11.3932 78.3084 9.0598 74.324 7.84657ZM80 43.9999C80 64.0016 54.724 77.1209 48 80.2596C41.268 77.1319 16 64.0529 16 43.9999V25.2376C16.0002 22.9286 16.7931 20.6782 18.2663 18.8053C19.7394 16.9324 21.8182 15.5319 24.208 14.8022L48 7.53124L71.792 14.8022C74.1818 15.5319 76.2606 16.9324 77.7337 18.8053C79.2069 20.6782 79.9998 22.9286 80 25.2376V43.9999Z" fill="#259CD7"/>
<path d="M61.2 30.4334L44.448 45.8334L35.472 37.2534C35.1118 36.8923 34.6764 36.601 34.1914 36.3966C33.7065 36.1922 33.1819 36.0789 32.6484 36.0632C32.1149 36.0475 31.5834 36.1299 31.0852 36.3055C30.587 36.481 30.1322 36.7462 29.7475 37.0853C29.3628 37.4245 29.0561 37.8308 28.8453 38.2803C28.6346 38.7298 28.5241 39.2135 28.5205 39.7027C28.5168 40.192 28.62 40.6769 28.8239 41.1291C29.0279 41.5812 29.3285 41.9914 29.708 42.3354L38.932 51.1354C39.6199 51.8165 40.4514 52.3626 41.3761 52.7407C42.3008 53.1189 43.2996 53.3211 44.312 53.3354H44.444C45.4362 53.3384 46.4192 53.1607 47.3359 52.8126C48.2526 52.4645 49.0847 51.953 49.784 51.3077L66.872 35.6437C67.2452 35.3023 67.5414 34.8969 67.7437 34.4505C67.946 34.0042 68.0504 33.5257 68.0509 33.0424C68.0515 32.5591 67.9482 32.0804 67.747 31.6337C67.5457 31.187 67.2504 30.781 66.878 30.4389C66.5056 30.0967 66.0633 29.8252 65.5764 29.6398C65.0895 29.4544 64.5675 29.3587 64.0402 29.3582C63.513 29.3576 62.9908 29.4523 62.5035 29.6368C62.0161 29.8213 61.5732 30.092 61.2 30.4334Z" fill="#259CD7"/>
</g>
<defs>
<clipPath id="clip0_379_306">
<rect width="96" height="88" fill="white"/>
</clipPath>
</defs>
</svg>
