<svg width="96" height="88" viewBox="0 0 96 88" fill="none" xmlns="http://www.w3.org/2000/svg">
<g clip-path="url(#clip0_379_304)">
<path d="M64 77H65.96C75.96 77 84.48 70.1433 85.8 61.0867L86.68 55H88C93.2 55 96 51.2233 96 47.6667C96 42.46 84.28 21.9633 79.2 16.2067C69.44 4.25332 53.96 -1.65001 37.8 0.403322C17.84 2.89666 2 18.15 0.200001 36.5933C-0.799999 46.75 2.36 56.76 9.04 64.79C10.96 67.0633 12 70.1433 12 73.4067V76.9633C12 83.0133 17.4 87.9633 24 87.9633H52C58.6 87.9633 64 83.0133 64 76.9633V77ZM72.88 20.7167C78.12 26.6567 87.48 44.3667 88 47.6667H83.2C81.2 47.6667 79.48 49.0233 79.24 50.8567L77.92 60.0967C77.12 65.56 72 69.6667 66.04 69.6667H60.08C57.88 69.6667 56.08 71.3167 56.08 73.3333V77C56.08 79.0167 54.28 80.6667 52.08 80.6667H24C21.8 80.6667 20 79.0167 20 77V73.4433C20 68.5667 18.36 63.91 15.4 60.3533C9.92 53.79 7.32 45.5767 8.16 37.2533C9.64 22.1467 22.56 9.71666 38.92 7.66332C40.64 7.44332 42.36 7.33332 44.04 7.33332C55.36 7.33332 65.88 12.1 72.92 20.7167H72.88Z" fill="#259CD7"/>
</g>
<defs>
<clipPath id="clip0_379_304">
<rect width="96" height="88" fill="white"/>
</clipPath>
</defs>
</svg>
