<svg width="96" height="96" viewBox="0 0 96 96" fill="none" xmlns="http://www.w3.org/2000/svg">
<path d="M64.828 34.484L49.656 49.656C48.144 51.168 46.136 52 44 52C41.864 52 39.856 51.168 38.344 49.656L29.172 40.484L34.828 34.828L44 44L59.172 28.828L64.828 34.484ZM96 76.144H76V96.144L58.804 78.948C57.704 80.148 56.484 81.232 55 82.056C52.828 83.26 50.392 83.864 47.956 83.864C45.52 83.864 43.084 83.264 40.912 82.056C39.444 81.244 38.232 80.176 37.144 78.996L20 96.14V76.14H0L14.036 62.104C13.932 60.66 14.02 59.224 14.34 57.808C14.632 56.516 14.016 55.128 12.808 54.344C10.728 53 9.048 51.184 7.808 48.94C6.624 46.808 6.004 44.348 6.016 41.836C6.004 39.356 6.624 36.896 7.812 34.76C9.052 32.524 10.732 30.708 12.812 29.364C14.024 28.58 14.64 27.192 14.348 25.9C13.788 23.436 13.872 20.912 14.596 18.388C15.964 13.616 19.78 9.80002 24.556 8.42802C27.084 7.70802 29.604 7.62402 32.06 8.18402C33.352 8.48802 34.744 7.86002 35.524 6.65202C36.86 4.57602 38.676 2.89602 40.92 1.65202C45.264 -0.759982 50.664 -0.759982 55.004 1.65202C57.248 2.89602 59.06 4.57602 60.4 6.65202C61.184 7.86402 62.584 8.48802 63.864 8.18802C66.328 7.62402 68.848 7.70802 71.368 8.43202C76.144 9.80002 79.96 13.616 81.332 18.388C82.056 20.916 82.14 23.444 81.58 25.904C81.288 27.188 81.904 28.58 83.116 29.364C85.192 30.704 86.872 32.52 88.116 34.764C89.3 36.904 89.92 39.36 89.908 41.872C89.92 44.348 89.3 46.804 88.116 48.944C86.872 51.192 85.192 53.008 83.116 54.344C81.904 55.128 81.288 56.52 81.58 57.808C81.896 59.196 81.984 60.604 81.892 62.02L96.012 76.14L96 76.144ZM65.628 67.724C66.76 67.984 67.952 67.94 69.156 67.588C71.268 66.984 73.028 65.228 73.636 63.116C73.98 61.904 74.028 60.716 73.768 59.588C72.736 55.028 74.744 50.224 78.768 47.628C79.72 47.012 80.512 46.152 81.108 45.072C81.628 44.128 81.904 43.02 81.9 41.876C81.904 40.696 81.632 39.592 81.108 38.644C80.512 37.564 79.72 36.708 78.768 36.088C74.748 33.496 72.736 28.688 73.768 24.136C74.024 23 73.98 21.812 73.632 20.6C73.028 18.492 71.268 16.736 69.156 16.128C67.944 15.784 66.76 15.736 65.624 15.992C61.08 17.02 56.268 15.02 53.668 10.992C53.052 10.04 52.192 9.24802 51.112 8.65202C49.196 7.58402 46.708 7.58402 44.784 8.65202C43.704 9.24802 42.848 10.036 42.232 10.992C39.632 15.016 34.828 17.02 30.276 15.992C29.144 15.732 27.96 15.78 26.74 16.128C24.632 16.732 22.876 18.488 22.272 20.6C21.924 21.812 21.88 23.004 22.136 24.136C23.172 28.688 21.164 33.492 17.136 36.092C16.18 36.708 15.392 37.568 14.8 38.644C14.276 39.588 14 40.696 14.008 41.844C14.004 43.028 14.276 44.132 14.8 45.076C15.396 46.156 16.184 47.012 17.14 47.632C21.164 50.228 23.172 55.032 22.136 59.588C21.88 60.72 21.924 61.908 22.272 63.12C22.876 65.228 24.632 66.984 26.744 67.592C27.96 67.94 29.148 67.984 30.276 67.728C31.072 67.548 31.88 67.46 32.68 67.46C36.444 67.46 40.088 69.408 42.232 72.728C42.848 73.684 43.708 74.472 44.784 75.068C46.704 76.136 49.192 76.136 51.112 75.068C52.188 74.472 53.048 73.68 53.668 72.724C56.264 68.7 61.072 66.696 65.624 67.728L65.628 67.724Z" fill="#259CD7"/>
</svg>
