<svg width="96" height="94" viewBox="0 0 96 94" fill="none" xmlns="http://www.w3.org/2000/svg">
<path d="M24.064 17.6123C22.4994 17.6112 20.9499 17.9119 19.5042 18.497C18.0585 19.0821 16.7449 19.9402 15.6386 21.0222C14.5322 22.1042 13.6548 23.389 13.0566 24.8029C12.4583 26.2168 12.1509 27.7322 12.152 29.2624C12.152 37.9981 24.064 50.8963 24.064 50.8963C24.064 50.8963 35.976 37.9981 35.976 29.2624C35.977 27.7322 35.6696 26.2168 35.0714 24.8029C34.4731 23.389 33.5957 22.1042 32.4894 21.0222C31.383 19.9402 30.0695 19.0821 28.6237 18.497C27.178 17.9119 25.6286 17.6112 24.064 17.6123ZM24.064 33.421C23.223 33.421 22.4009 33.1771 21.7017 32.7201C21.0025 32.2632 20.4575 31.6137 20.1356 30.8538C19.8138 30.094 19.7296 29.2578 19.8937 28.4511C20.0577 27.6445 20.4627 26.9035 21.0574 26.3219C21.652 25.7403 22.4096 25.3443 23.2345 25.1838C24.0593 25.0233 24.9142 25.1057 25.6911 25.4204C26.4681 25.7352 27.1322 26.2682 27.5994 26.9521C28.0666 27.6359 28.316 28.44 28.316 29.2624C28.3149 30.365 27.8666 31.4222 27.0694 32.2018C26.2723 32.9815 25.1914 33.4199 24.064 33.421ZM84.096 44.1909V27.369C84.0679 25.6025 83.7933 23.848 83.28 22.1542C81.9675 17.6761 79.0627 13.8038 75.0892 11.235C71.1157 8.66627 66.3347 7.57004 61.6079 8.1439C56.881 8.71776 52.5192 10.924 49.3084 14.3649C46.0977 17.8059 44.2492 22.2553 44.096 26.9113V27.8815L44.056 31.285V70.218H44.04V70.3784C44.04 72.4535 43.1971 74.4436 41.6968 75.9109C40.1965 77.3783 38.1617 78.2026 36.04 78.2026C33.9182 78.2026 31.8834 77.3783 30.3831 75.9109C28.8828 74.4436 28.04 72.4535 28.04 70.3784C28.04 70.3315 28.052 70.2845 28.056 70.2337H28.04V62.6325H20.04V70.4567H20.048C20.0506 74.6048 21.738 78.582 24.739 81.5133C27.74 84.4446 31.8086 86.09 36.05 86.0874C40.2913 86.0848 44.3579 84.4345 47.3551 81.4995C50.3523 78.5645 52.0346 74.5852 52.032 70.4371H52.04V66.5955H52.06V35.1971L52.1 27.8815V26.9152C52.214 23.8354 53.5616 20.923 55.852 18.8065C58.1423 16.69 61.1918 15.5392 64.3422 15.6023C67.4925 15.6655 70.4912 16.9376 72.6909 19.1441C74.8907 21.3507 76.1151 24.3146 76.1 27.3964V44.1205C74.5682 44.9682 73.3652 46.2864 72.6774 47.8709C71.9897 49.4553 71.8557 51.2174 72.2961 52.8839C72.7366 54.5504 73.7269 56.0283 75.1136 57.0883C76.5003 58.1483 78.2058 58.7312 79.9657 58.7467C81.7256 58.7622 83.4416 58.2094 84.8475 57.174C86.2535 56.1385 87.2709 54.6784 87.7419 53.0199C88.213 51.3614 88.1114 49.5972 87.4529 48.0009C86.7945 46.4047 85.6119 45.0654 84.096 44.1909Z" fill="#259CD7"/>
</svg>
